<svg xmlns="http://www.w3.org/2000/svg" width="368" height="87" viewBox="0 0 368 87" fill="none"><path d="M30.6387 5.19641C30.6387 6.22443 30.9436 7.22935 31.5149 8.08403C32.0861 8.93871 32.8981 9.60474 33.848 9.99786C34.7979 10.391 35.843 10.4935 36.8512 10.2925C37.8594 10.0915 38.7853 9.59593 39.5117 8.86857C40.2382 8.1412 40.7326 7.2147 40.9324 6.20628C41.1322 5.19786 41.0284 4.15284 40.6341 3.20343C40.2398 2.25402 39.5728 1.44289 38.7174 0.87267C37.862 0.302445 36.8568 -0.00125134 35.8287 3.87529e-06C35.1467 0.000420354 34.4715 0.13516 33.8416 0.396529C33.2117 0.657898 32.6394 1.04078 32.1575 1.52331C31.6756 2.00584 31.2934 2.57857 31.0328 3.2088C30.7722 3.83903 30.6383 4.51442 30.6387 5.19641Z" fill="white"></path><mask id="mask0_500_40" style="mask-type:luminance" maskUnits="userSpaceOnUse" x="30" y="0" width="12" height="11"><path d="M30.6387 5.19641C30.6387 6.22443 30.9436 7.22935 31.5149 8.08403C32.0861 8.93871 32.8981 9.60474 33.848 9.99786C34.7979 10.391 35.843 10.4935 36.8512 10.2925C37.8594 10.0915 38.7853 9.59593 39.5117 8.86857C40.2382 8.1412 40.7326 7.2147 40.9324 6.20628C41.1322 5.19786 41.0284 4.15284 40.6341 3.20343C40.2398 2.25402 39.5728 1.44289 38.7174 0.87267C37.862 0.302445 36.8568 -0.00125134 35.8287 3.87529e-06C35.1467 0.000420354 34.4715 0.13516 33.8416 0.396529C33.2117 0.657898 32.6394 1.04078 32.1575 1.52331C31.6756 2.00584 31.2934 2.57857 31.0328 3.2088C30.7722 3.83903 30.6383 4.51442 30.6387 5.19641Z" fill="white"></path></mask><g mask="url(#mask0_500_40)"><path d="M41.0237 0H30.6309V10.3896H41.0237V0Z" fill="white"></path></g><path d="M31.5566 13.2852C21.8364 13.2852 1 62.1212 1 78.7827C1 81.4285 1.52345 83.2653 2.70358 83.9601C3.02428 84.1528 3.39219 84.2528 3.76634 84.2487C10.384 84.2487 25.0215 56.3728 50.3531 55.8049H51.1462C72.2554 55.8049 92.5683 74.5697 92.5683 81.6061C92.5745 81.9707 92.5087 82.3329 92.3748 82.6721C91.4929 84.788 87.1372 86.0634 81.2936 86.0602C72.3379 86.0602 59.8894 83.075 51.0764 75.5563C28.2351 56.0682 40.5155 15.2806 32.1594 13.3772C40.5155 15.2806 28.2256 56.0873 51.0764 75.5563C59.8894 83.075 72.3316 86.0634 81.2936 86.0602C87.1372 86.0602 91.4929 84.7912 92.3748 82.6721C92.5087 82.3329 92.5745 81.9707 92.5683 81.6061C92.5683 74.5697 72.2649 55.8049 51.1462 55.8049H50.3531C25.0088 56.3728 10.3808 84.2487 3.76634 84.2487C3.39219 84.2528 3.02428 84.1528 2.70358 83.9601C1.52345 83.2621 1 81.4221 1 78.7827C1 62.1212 21.8364 13.2852 31.5566 13.2852Z" fill="white"></path><path d="M32.1594 13.3518C31.9616 13.307 31.7594 13.2847 31.5566 13.2852C21.8364 13.2852 1 62.1212 1 78.7827M1 78.7827C1 81.4285 1.52345 83.2653 2.70358 83.9601M1 78.7827C1 81.4221 1.52345 83.2621 2.70358 83.9601M2.70358 83.9601C3.02428 84.1528 3.39219 84.2528 3.76634 84.2487M3.76634 84.2487C10.384 84.2487 25.0215 56.3728 50.3531 55.8049M3.76634 84.2487C10.3808 84.2487 25.0088 56.3728 50.3531 55.8049M50.3531 55.8049H51.1462M51.1462 55.8049C72.2554 55.8049 92.5683 74.5697 92.5683 81.6061M51.1462 55.8049C72.2649 55.8049 92.5683 74.5697 92.5683 81.6061M92.5683 81.6061C92.5745 81.9707 92.5087 82.3329 92.3748 82.6721M92.3748 82.6721C91.4929 84.7881 87.1372 86.0634 81.2936 86.0602M92.3748 82.6721C91.4929 84.7912 87.1372 86.0602 81.2936 86.0602M81.2936 86.0602C72.3379 86.0602 59.8894 83.0749 51.0764 75.5563M81.2936 86.0602C72.3316 86.0634 59.8894 83.0749 51.0764 75.5563M51.0764 75.5563C28.2351 56.0682 40.5155 15.2806 32.1594 13.3772C40.5155 15.2806 28.2256 56.0873 51.0764 75.5563Z" stroke="white" stroke-miterlimit="10"></path><path d="M134.528 52.4979C132.727 52.5236 130.086 41.9742 127.398 41.9742L116.457 42.1805C113.821 42.6964 111.865 52.534 109.936 52.534C109.42 52.534 109.276 52.2812 109.049 52.2812V51.5951L120.594 26.6219C120.419 26.0132 119.985 25.0743 119.81 24.3418H123.421L137.05 51.5951V52.5082L134.528 52.4979ZM127.703 39.6012L122.193 29.3818H121.455L116.787 39.6063V40.3182H127.703V39.6012Z" fill="white"></path><path d="M149.467 52.5742C149.013 52.5742 144.825 52.3472 141.25 52.5484V26.497C141.25 26.0379 140.259 24.9752 140.053 24.1602C143.277 24.676 157.076 22.2308 157.076 30.1236C157.076 31.8982 155.988 33.1672 153.981 34.6426C153.981 34.8438 154.157 34.8954 154.363 35.045C158.598 36.8505 159.893 39.5382 159.893 43.1183C159.924 49.6028 154.621 52.5742 149.467 52.5742ZM150.319 36.4069C148.642 35.9529 147.12 36.51 147.12 35.2668C149.581 34.5033 153.641 33.9978 153.641 30.4434C153.641 27.1986 148.998 25.976 147.043 25.976C146.842 25.976 145.062 26.4093 144.634 26.8427V50.7428C145.547 50.5365 146.697 50.7686 147.146 50.7686C150.798 50.7686 156.076 49.448 156.076 43.5465C156.065 40.5699 154.394 37.5005 150.319 36.4069Z" fill="white"></path><path d="M184.79 52.4717V38.2595C184.066 37.9222 183.282 37.7328 182.484 37.7024C182.05 37.7024 174.818 38.0841 168.628 38.3627C168.496 38.4376 168.376 38.5315 168.272 38.6413V52.2447C167.798 52.5809 167.227 52.7497 166.647 52.7245C165.992 52.7429 165.344 52.5938 164.764 52.2911V24.5323C165.855 24.3302 166.974 24.3302 168.065 24.5323C168.166 25.9767 168.166 27.4263 168.065 28.8707C168.065 29.3299 168.375 33.4877 168.323 35.7215C168.779 36.0243 169.329 36.1509 169.871 36.0774C170.325 36.0774 180.91 35.675 184.155 35.4171C184.355 35.261 184.541 35.0885 184.712 34.9012V24.7593C185.179 24.4312 185.742 24.2712 186.311 24.3053C187.049 24.3053 187.988 24.3569 188.117 24.9914V52.4717H184.79Z" fill="white"></path><path d="M206.686 38.8769V52.5319H203.452V39.9086C203.426 39.2225 193.134 26.5889 191.881 24.381H195.662L204.999 35.9003C206.243 35.3432 208.301 32.119 209.9 30.4424C211.876 28.379 213.779 24.123 216.343 24.123C216.859 24.123 217.055 24.3758 217.458 24.3758L206.686 38.8769Z" fill="white"></path><path d="M236.985 52.4945C235.184 52.5203 232.543 41.9605 229.85 41.9605L218.914 42.1668C216.278 42.6827 214.322 52.5203 212.393 52.5203C211.877 52.5203 211.733 52.2675 211.506 52.2675V51.5814L223.056 26.6083C222.881 25.9995 222.447 25.0607 222.272 24.3281H225.883L239.512 51.5814V52.4945H236.985ZM230.154 39.5978L224.65 29.3733H223.912L219.218 39.5978V40.3097H230.154V39.5978Z" fill="white"></path><path d="M246.393 30.5718C245.098 31.2579 245.706 35.0856 245.706 35.519V44.2887C245.706 44.8046 245.861 49.8188 245.629 52.4859H244.597C244.351 52.437 244.119 52.3314 243.92 52.1774C243.721 52.0234 243.561 51.8252 243.452 51.5986V25.6453C243.096 25.1655 242.72 25.2171 242.668 24.0977H245.407L264.67 44.3764C264.67 44.3764 264.974 44.4796 264.974 43.9689V24.758C265.175 24.5568 265.227 24.304 265.428 24.0977H266.903V52.0886L246.393 30.5718Z" fill="white"></path><path d="M275.823 50.2252C276.23 52.9902 271.665 56.1886 268.972 56.1886C268.838 56.0668 268.671 55.9878 268.492 55.9616V54.6152C271.84 53.5835 272.727 52.0359 272.753 48.9407V24.1738H276.153V49.4256C276.167 49.5756 276.144 49.7268 276.087 49.8662C276.029 50.0055 275.938 50.1287 275.823 50.2252Z" fill="white"></path><path d="M305.233 52.4945C303.433 52.5203 300.797 41.9605 298.104 41.9605L287.168 42.1668C284.526 42.6827 282.576 52.5203 280.647 52.5203C280.131 52.5203 279.987 52.2675 279.76 52.2675V51.5814L291.305 26.6083C291.124 25.9995 290.696 25.0607 290.516 24.3281H294.127L307.751 51.5814V52.4945H305.233ZM298.408 39.5978L292.904 29.3785H292.182L287.487 39.603V40.3149H298.424L298.408 39.5978Z" fill="white"></path><path d="M314.648 30.5718C313.354 31.2579 313.962 35.0856 313.962 35.519V44.2887C313.962 44.8046 314.112 49.8188 313.885 52.4859H312.853C312.607 52.4378 312.375 52.3324 312.177 52.1783C311.979 52.0241 311.82 51.8256 311.713 51.5986V25.6453C311.357 25.1655 310.975 25.2171 310.924 24.0977H313.668L332.936 44.3764C332.936 44.3764 333.24 44.4796 333.24 43.9689V24.758C333.447 24.5568 333.498 24.304 333.699 24.0977H335.17V52.0886L314.648 30.5718Z" fill="white"></path><path d="M364.811 52.4979C363.011 52.5236 360.369 41.9742 357.697 41.9742L346.761 42.1805C344.119 42.6964 342.164 52.534 340.235 52.534C339.719 52.534 339.575 52.2812 339.348 52.2812V51.5951L350.893 26.6219C350.717 26.0132 350.284 25.0743 350.109 24.3418H353.72L367.349 51.5951V52.5082L364.811 52.4979ZM357.986 39.6012L352.477 29.3767H351.744L347.05 39.6012V40.3131H357.986V39.6012Z" fill="white"></path><path d="M120.738 70.6895H122.461L124.68 78.1076C124.845 78.7421 125.015 79.3818 125.195 80.3052C125.397 79.3302 125.582 78.7576 125.768 78.1076L128.069 70.6895H129.843L132.129 78.1076C132.351 78.8301 132.535 79.5636 132.681 80.3052C132.812 79.5688 132.984 78.8403 133.196 78.1231L135.43 70.6895H137.107L133.449 82.8227H131.86L128.925 73.2224L125.954 82.8227H124.344L120.738 70.6895Z" fill="white"></path><path d="M141.879 82.8227V70.6895H149.287V72.1958H143.519V76.0184H148.709V77.4783H143.519V81.3215H149.287V82.8691L141.879 82.8227Z" fill="white"></path><path d="M156.189 81.2957H161.523V82.8433H154.543V70.6895H156.189V81.2957Z" fill="white"></path><path d="M167.972 81.2957H173.306V82.8433H166.311V70.6895H167.956L167.972 81.2957Z" fill="white"></path><path d="M178.107 82.8227V70.6895H179.753L185.943 80.0679V70.6895H187.589V82.8227H185.943L179.753 73.439V82.8227H178.107Z" fill="white"></path><path d="M193.555 82.8227V70.6895H200.957V72.1958H195.2V76.0184H200.385V77.4783H195.2V81.3215H200.957V82.8691L193.555 82.8227Z" fill="white"></path><path d="M209.808 70.4688C212.124 70.4688 213.615 71.7636 213.749 73.8632H212.088C212.005 72.6509 211.149 71.9493 209.792 71.9493C208.245 71.9493 207.275 72.7179 207.275 73.9096C207.275 74.8846 207.827 75.4572 208.967 75.7409L210.963 76.2104C212.944 76.6643 213.95 77.758 213.95 79.45C213.95 81.6321 212.258 83.025 209.674 83.025C207.208 83.025 205.547 81.7302 205.459 79.6512H207.141C207.172 80.8068 208.147 81.5444 209.674 81.5444C211.283 81.5444 212.31 80.7913 212.31 79.5841C212.31 78.6246 211.794 78.0365 210.628 77.7528L208.632 77.2989C206.651 76.85 205.629 75.7048 205.629 73.9612C205.629 71.8926 207.306 70.4688 209.808 70.4688Z" fill="white"></path><path d="M222.859 70.4688C225.175 70.4688 226.672 71.7636 226.806 73.8632H225.145C225.062 72.6509 224.206 71.9493 222.844 71.9493C221.296 71.9493 220.326 72.7179 220.326 73.9096C220.326 74.8846 220.883 75.4572 222.024 75.7409L224.02 76.2104C226.001 76.6643 227.007 77.758 227.007 79.45C227.007 81.6321 225.31 83.025 222.725 83.025C220.259 83.025 218.598 81.7302 218.516 79.6512H220.192C220.228 80.8068 221.224 81.5444 222.725 81.5444C224.34 81.5444 225.361 80.7913 225.361 79.5841C225.361 78.6246 224.845 78.0365 223.685 77.7528L221.688 77.2989C219.707 76.85 218.681 75.7048 218.681 73.9612C218.681 71.8926 220.362 70.4688 222.859 70.4688Z" fill="white"></path><path d="M243.836 70.4688C246.152 70.4688 247.648 71.7636 247.782 73.8632H246.121C246.033 72.6509 245.182 71.9493 243.82 71.9493C242.273 71.9493 241.303 72.7179 241.303 73.9096C241.303 74.8846 241.855 75.4572 243 75.7409L244.996 76.2104C246.977 76.6643 247.983 77.758 247.983 79.45C247.983 81.6321 246.286 83.025 243.702 83.025C241.236 83.025 239.575 81.7302 239.492 79.6512H241.169C241.2 80.8068 242.175 81.5444 243.702 81.5444C245.316 81.5444 246.338 80.7913 246.338 79.5841C246.338 78.6246 245.822 78.0365 244.661 77.7528L242.66 77.2989C240.684 76.85 239.657 75.7048 239.657 73.9612C239.657 71.8926 241.339 70.4688 243.836 70.4688Z" fill="white"></path><path d="M254.941 82.8227H253.295V70.6895H254.941V82.8227Z" fill="white"></path><path d="M260.863 82.8227V70.6895H262.473L266.651 80.8933L270.83 70.6895H272.475V82.8227H270.861V78.0199C270.861 75.7553 270.861 74.9247 270.964 74.0787L267.42 82.8227H265.872L262.349 74.1096C262.452 75.2828 262.491 76.4607 262.468 77.6382V82.8227H260.863Z" fill="white"></path><path d="M280.073 78.4894V82.8227H278.428V70.6895H283.143C285.526 70.6895 287.053 72.237 287.053 74.5791C287.08 75.0996 286.997 75.62 286.81 76.1065C286.623 76.593 286.336 77.0348 285.967 77.4034C285.598 77.7719 285.157 78.059 284.67 78.2461C284.184 78.4332 283.663 78.516 283.143 78.4894H280.073ZM280.073 72.1648V77.014H282.792C284.417 77.014 285.325 76.0596 285.325 74.5636C285.325 73.0676 284.401 72.1648 282.859 72.1648H280.073Z" fill="white"></path><path d="M293.55 81.2957H298.889V82.8433H291.904V70.6895H293.55V81.2957Z" fill="white"></path><path d="M305.331 82.8227H303.686V70.6895H305.331V82.8227Z" fill="white"></path><path d="M312.9 77.6691V82.8278H311.27V70.6895H318.59V72.1958H312.915V76.1731H317.682V77.6691H312.9Z" fill="white"></path><path d="M325.121 82.8227H323.48V70.6895H325.121V82.8227Z" fill="white"></path><path d="M331.047 82.8227V70.6895H338.444V72.1958H332.687V76.0184H337.877V77.4783H332.687V81.3215H338.444V82.8691L331.047 82.8227Z" fill="white"></path><path d="M343.711 82.8227V70.6895H347.657C351.268 70.6895 353.729 73.1398 353.729 76.7612C353.729 80.3826 351.315 82.8227 347.724 82.8227H343.711ZM345.357 72.1958V81.2957H347.606C350.309 81.2957 352.016 79.5469 352.016 76.7612C352.016 73.9755 350.309 72.1958 347.539 72.1958H345.357Z" fill="white"></path></svg>